<?xml version="1.0" encoding="utf-8"?>
<!-- Generator: Adobe Illustrator 19.0.0, SVG Export Plug-In . SVG Version: 6.00 Build 0)  -->
<svg version="1.1" id="图层_1" xmlns="http://www.w3.org/2000/svg" xmlns:xlink="http://www.w3.org/1999/xlink" x="0px" y="0px"
	 viewBox="0 0 1694.6 190.9" style="enable-background:new 0 0 1694.6 190.9;" xml:space="preserve">
<style type="text/css">
	.st0{fill:#FC42A4;}
	.st1{fill:#FF5B45;}
	.st2{fill:#8ED32D;}
	.st3{fill:#FFCC00;}
	.st4{fill:#00ADEC;}
</style>
<g id="XMLID_125_">
	<path id="XMLID_128_" class="st0" d="M95.7,11.2L95.7,11.2c-12.8,0-23.2,10.4-23.2,23.2v132.8c0,12.8,10.4,23.2,23.2,23.2h0
		c12.8,0,23.2-10.4,23.2-23.2V34.4C118.9,21.6,108.5,11.2,95.7,11.2z"/>
	<path id="XMLID_127_" class="st0" d="M188,92.7l-16.4-16.4c-4.5-4.5-11.9-4.5-16.4,0l-16.4,16.4c-4.5,4.5-4.5,11.9,0,16.4
		l16.4,16.4c4.5,4.5,11.9,4.5,16.4,0l16.4-16.4C192.5,104.5,192.5,97.2,188,92.7z"/>
	<path id="XMLID_126_" class="st0" d="M36.2,76.2c-4.5-4.5-11.9-4.5-16.4,0L3.4,92.7c-4.5,4.5-4.5,11.9,0,16.4l16.4,16.4
		c4.5,4.5,11.9,4.5,16.4,0l16.4-16.4c4.5-4.5,4.5-11.9,0-16.4L36.2,76.2z"/>
</g>
<path id="XMLID_124_" class="st1" d="M297,144.1h-42.5c-0.1,0-0.1-0.1-0.1-0.1V57.8c0-0.1,0.1-0.1,0.1-0.1H297
	c12.4,0,23.3-9.4,24.1-21.8c0.8-13.5-9.9-24.6-23.2-24.6h-40.6h-5.8h-20.3c-12.8,0-23.2,10.4-23.2,23.2v132.8
	c0,12.8,10.4,23.2,23.2,23.2h20.3h5.8H298c13.3,0,24-11.2,23.2-24.6C320.4,153.4,309.5,144.1,297,144.1z"/>
<path id="XMLID_123_" class="st2" d="M691.1,124.1c12.8,0,23.2-10.4,23.2-23.2s-10.4-23.2-23.2-23.2h-40.6v-20h40.6
	c12.8,0,23.2-10.4,23.2-23.2s-10.4-23.2-23.2-23.2h-40.6h-5.8h-17.4c-12.8,0-23.2,10.4-23.2,23.2v132.8c0,12.8,10.4,23.2,23.2,23.2
	h17.4h5.8h40.6c12.8,0,23.2-10.4,23.2-23.2c0-12.8-10.4-23.2-23.2-23.2h-40.6v-20H691.1z"/>
<path id="XMLID_122_" class="st3" d="M563.9,77.7h-19.3h-27.1v-20h46.4c12.8,0,23.2-10.4,23.2-23.2s-10.4-23.2-23.2-23.2h-45.4
	h-24.2c-12.8,0-23.2,10.4-23.2,23.2v66.4c0,12.8,10.4,23.2,23.2,23.2h24.2h22.2v20h-46.4c-12.8,0-23.2,10.4-23.2,23.2
	c0,12.8,10.4,23.2,23.2,23.2h47.4h22.2c12.8,0,23.2-10.4,23.2-23.2v-66.4C587.1,88,576.7,77.7,563.9,77.7z"/>
<path id="XMLID_119_" class="st4" d="M430.9,11.2h-23.2h-23.2h-23.2c-12.8,0-23.2,10.4-23.2,23.2v22.5v23.6V127v40.3
	c0,12.8,10.4,23.2,23.2,23.2c12.8,0,23.2-10.4,23.2-23.2V127h23.2v40.3c0,12.8,10.4,23.2,23.2,23.2c12.8,0,23.2-10.4,23.2-23.2V127
	V80.6V56.9V34.4C454.1,21.6,443.7,11.2,430.9,11.2z M407.7,80.5h-23.2V57.6h23.2V80.5z"/>
<path id="XMLID_3_" class="st4" d="M815.9,188.4h-17.8c-8.3,0-15-6.7-15-15V52.5c0-1.1-0.9-2-2-2h-26.2c-8.3,0-15-6.7-15-15v-9.1
	c0-8.3,6.7-15,15-15H859c8.3,0,15,6.7,15,15v9.1c0,8.3-6.7,15-15,15h-26.1c-1.1,0-2,0.9-2,2v120.9
	C830.9,181.7,824.2,188.4,815.9,188.4z"/>
<path id="XMLID_5_" class="st4" d="M946.5,190.9c-22.8,0-40.6-6.1-53.2-18.2c-12.6-12.1-19-29.4-19-51.9c0-23.2,5.9-41,17.6-53.3
	C903.6,55,920.3,48.8,942,48.8c20.7,0,36.6,5.4,47.9,16.2c11.3,10.8,16.9,26.3,16.9,46.6v6.2c0,8.2-6.6,14.8-14.8,14.8l-69.8,0
	c0.3,7.7,3.1,13.7,8.4,18c5.3,4.4,12.5,6.5,21.6,6.5c8.3,0,16-0.8,22.9-2.4c1.3-0.3,2.6-0.6,3.9-1c9.4-2.6,18.8,4.6,18.8,14.4v2.8
	c0,6.3-4,11.9-9.9,14.1c-4.3,1.6-8.7,2.7-13.1,3.6C966.9,190.1,957.5,190.9,946.5,190.9z M943.7,81c-5.6,0-10.2,1.8-14,5.3
	c-3.8,3.5-6,9-6.6,16.5h40.7c-0.2-6.6-2-11.9-5.6-15.9C954.6,83,949.8,81,943.7,81z"/>
<path id="XMLID_8_" class="st4" d="M1122.4,188.4c-5.3,0-10.2-3-12.6-7.8l-5.2-10.4h-1c-6.4,7.9-12.9,13.3-19.5,16.2
	c-6.6,2.9-15.2,4.4-25.7,4.4c-12.9,0-23.1-3.9-30.5-11.6c-7.4-7.8-11.1-18.6-11.1-32.7c0-14.6,5.1-25.5,15.3-32.6
	c10.2-7.1,24.9-11.2,44.2-12l22.9-0.7v-1.9c0-11.3-5.6-17-16.7-17c-7.1,0-15.4,1.7-25.2,5c-7.3,2.5-15.7-1.1-18.8-8.1l-1.7-3.9
	c-3.6-8.2,0.8-17.8,9.4-20.4c12.9-4,27.9-6,45-6c17.6,0,31.2,4.4,40.9,13.1c9.6,8.7,14.5,20.9,14.5,36.6v75.9
	c0,7.8-6.3,14.1-14.1,14.1H1122.4z M1078.6,157.4c5.7,0,10.6-1.8,14.7-5.4c4.1-3.6,6.1-8.4,6.1-14.2v-10.7l-10.9,0.5
	c-15.6,0.6-23.4,5.1-23.4,17.2C1065.1,153.2,1069.6,157.4,1078.6,157.4z"/>
<path id="XMLID_11_" class="st4" d="M1228.8,190.9c-22.4,0-39.5-6.1-51-18.2c-11.6-12.1-17.4-29.5-17.4-52.2
	c0-22.8,6.3-40.4,18.8-52.9c12.5-12.5,30.3-18.8,53.4-18.8c10.2,0,20,1.4,29.5,4.3c8.6,2.6,13.1,12,9.8,20.3l-2.7,6.7
	c-3,7.6-11.4,11.4-19.1,8.8c-0.8-0.3-1.6-0.5-2.4-0.8c-4.8-1.5-9.9-2.2-15.1-2.2c-7.7,0-13.6,3-17.8,9c-4.2,6-6.3,14.4-6.3,25.3
	c0,22,8.1,32.9,24.3,32.9c6.9,0,13.7-1,20.4-3c9.8-3,19.6,4.6,19.6,14.8v4.9c0,5.9-3.4,11.4-8.8,13.9
	C1253.7,188.5,1242,190.9,1228.8,190.9z"/>
<path id="XMLID_13_" class="st4" d="M1390.8,188.4c-8.1,0-14.7-6.6-14.7-14.7v-60.1c0-18.4-5.4-27.6-16.3-27.6
	c-7.8,0-13.5,3.2-17.1,9.7c-3.7,6.5-5.5,17.3-5.5,32.4v45.6c0,8.1-6.6,14.7-14.7,14.7h-17.9c-8.1,0-14.7-6.6-14.7-14.7V14.7
	c0-8.1,6.6-14.7,14.7-14.7h17.9c8.1,0,14.7,6.6,14.7,14.7v12c0,11.9-0.6,25.3-1.9,40.4c0,0.5,0.4,1,0.9,1l0,0c0.8,0,1.5-0.4,1.9-1
	c4.4-6.6,9.5-11.2,15.4-14c6.2-2.9,13.4-4.4,21.7-4.4c15.3,0,27.3,4.4,35.8,13.3c8.5,8.8,12.8,21.2,12.8,37.1v74.5
	c0,8.1-6.6,14.7-14.7,14.7H1390.8z"/>
<path id="XMLID_15_" class="st4" d="M1511.7,190.9c-22.8,0-40.6-6.1-53.2-18.2c-12.6-12.1-19-29.4-19-51.9c0-23.2,5.9-41,17.6-53.3
	c11.7-12.4,28.4-18.6,50.1-18.6c20.7,0,36.6,5.4,47.9,16.2c11.3,10.8,16.9,26.3,16.9,46.6v6.1c0,8.3-6.7,15-15,15l-59.4,0
	c-6.2,0-10.1,6.7-7,12c1.3,2.3,3,4.3,5.1,6c5.3,4.4,12.5,6.5,21.6,6.5c8.3,0,16-0.8,22.9-2.4c1.3-0.3,2.5-0.6,3.8-1
	c9.5-2.6,18.9,4.6,18.9,14.5v2.6c0,6.3-4,12-9.9,14.1c-4.3,1.5-8.6,2.7-13.1,3.5C1532.1,190.1,1522.7,190.9,1511.7,190.9z
	 M1508.9,81c-5.6,0-10.2,1.8-14,5.3c-3.8,3.5-6,9-6.6,16.5l40.7,0c0,0,0,0,0,0c-0.2-6.6-2-11.9-5.6-15.9
	C1519.8,83,1514.9,81,1508.9,81z"/>
<path id="XMLID_18_" class="st4" d="M1669.2,48.8c0,0,0.1,0,0.1,0c7.8,0.1,13.8,6.8,13,14.5l-1.7,18.2c-0.7,7-6.6,12.2-13.6,12
	c-1.2,0-2.4-0.1-3.7-0.1c-10.3,0-17.8,2.4-22.5,7.1c-4.7,4.7-7,11.5-7,20.4v54.2c0,7.3-5.9,13.3-13.3,13.3h-20.8
	c-7.3,0-13.3-5.9-13.3-13.3V64.5c0-7.3,5.9-13.3,13.3-13.3h12.4c5.7,0,10.8,3.6,12.6,9l4,12c0.2,0.5,0.7,0.9,1.3,0.9h0.6
	c0.5,0,0.9-0.3,1.2-0.7c3.9-7,9.3-12.6,16.2-16.9C1654.9,51,1662,48.8,1669.2,48.8z"/>
</svg>
